<svg id="Layer_1" data-name="Layer 1" xmlns="http://www.w3.org/2000/svg" viewBox="0 0 882 347"><defs><style>.cls-1{fill:#d9e4d3;}</style></defs><title>bottom_weird</title><polygon class="cls-1" points="0 189 0 156 99 162 99 237 49 237 49 195 0 189"/><polygon class="cls-1" points="105 164 105 105 148 110 148 164 105 164"/><rect class="cls-1" x="166" y="63" width="51" height="42"/><rect class="cls-1" x="148" y="250" width="51" height="44"/><polygon class="cls-1" points="223 256 323 256 323 347 285 347 284 301 217 301 223 256"/><polygon class="cls-1" points="364 196 359 314 399 314 399 196 379 188 364 196"/><polygon class="cls-1" points="484 195 484 314 522 314 522 188 484 195"/><polygon class="cls-1" points="554 256 675 256 675 294 596 301 596 341 554 347 554 256"/><polygon class="cls-1" points="697 294 697 251 751 250 751 294 697 294"/><polygon class="cls-1" points="788 230 788 149 882 149 882 189 835 189 830 237 788 230"/><polygon class="cls-1" points="715 149 715 105 767 105 767 156 715 149"/><polygon class="cls-1" points="715 98 710 51 629 51 629 98 715 98"/><polygon class="cls-1" points="489 0 515 11 515 30 564 37 564 98 516 98 517 156 484 156 489 0"/><polygon class="cls-1" points="368 13 399 7 408 156 368 149 368 105 317 105 323 40 362 51 368 13"/></svg>