<svg width="191" height="32" viewBox="0 0 191 32" fill="none" xmlns="http://www.w3.org/2000/svg">
<g filter="url(#filter0_d_5_92)">
<path d="M53.7159 8.09091C53.6307 7.37121 53.285 6.8125 52.679 6.41477C52.0729 6.01705 51.3295 5.81818 50.4489 5.81818C49.8049 5.81818 49.2415 5.92235 48.7585 6.13068C48.2803 6.33901 47.9063 6.62547 47.6364 6.99006C47.3712 7.35464 47.2386 7.76894 47.2386 8.23295C47.2386 8.62121 47.331 8.95502 47.5156 9.23438C47.705 9.509 47.9465 9.73864 48.2401 9.9233C48.5336 10.1032 48.8414 10.2524 49.1634 10.3707C49.4853 10.4844 49.7812 10.5767 50.0511 10.6477L51.5284 11.0455C51.9072 11.1449 52.3286 11.2822 52.7926 11.4574C53.2614 11.6326 53.7088 11.8717 54.1349 12.1747C54.5658 12.473 54.9209 12.8565 55.2003 13.3253C55.4796 13.794 55.6193 14.3693 55.6193 15.0511C55.6193 15.8371 55.4134 16.5473 55.0014 17.1818C54.5942 17.8163 53.9976 18.3205 53.2116 18.6946C52.4304 19.0687 51.4811 19.2557 50.3636 19.2557C49.322 19.2557 48.42 19.0876 47.6577 18.7514C46.9001 18.4152 46.3035 17.9465 45.8679 17.3452C45.437 16.7438 45.1932 16.0455 45.1364 15.25H46.9545C47.0019 15.7992 47.1866 16.2538 47.5085 16.6136C47.8352 16.9687 48.2472 17.2339 48.7443 17.4091C49.2462 17.5795 49.786 17.6648 50.3636 17.6648C51.036 17.6648 51.6397 17.5559 52.1747 17.3381C52.7098 17.1155 53.1335 16.8078 53.446 16.4148C53.7585 16.017 53.9148 15.553 53.9148 15.0227C53.9148 14.5398 53.7798 14.1468 53.5099 13.8438C53.2401 13.5407 52.8849 13.2945 52.4446 13.1051C52.0043 12.9157 51.5284 12.75 51.017 12.608L49.2273 12.0966C48.0909 11.7699 47.1913 11.3035 46.5284 10.6974C45.8655 10.0914 45.5341 9.2983 45.5341 8.31818C45.5341 7.50379 45.7543 6.79356 46.1946 6.1875C46.6397 5.5767 47.2363 5.10322 47.9844 4.76705C48.7372 4.42614 49.5777 4.25568 50.5057 4.25568C51.4432 4.25568 52.2765 4.42377 53.0057 4.75994C53.7348 5.09138 54.3125 5.54593 54.7386 6.12358C55.1695 6.70123 55.3968 7.35701 55.4205 8.09091H53.7159ZM63.0323 8.09091V9.51136H57.3789V8.09091H63.0323ZM59.0266 5.47727H60.7028V15.875C60.7028 16.3485 60.7714 16.7036 60.9087 16.9403C61.0508 17.1723 61.2307 17.3286 61.4485 17.4091C61.671 17.4848 61.9054 17.5227 62.1516 17.5227C62.3363 17.5227 62.4878 17.5133 62.6062 17.4943C62.7246 17.4706 62.8192 17.4517 62.8903 17.4375L63.2312 18.9432C63.1175 18.9858 62.9589 19.0284 62.7553 19.071C62.5517 19.1184 62.2937 19.142 61.9812 19.142C61.5077 19.142 61.0437 19.0402 60.5891 18.8366C60.1393 18.633 59.7653 18.3229 59.467 17.9062C59.1734 17.4896 59.0266 16.964 59.0266 16.3295V5.47727ZM68.7638 19.2557C68.0726 19.2557 67.4452 19.1255 66.8817 18.8651C66.3183 18.5999 65.8709 18.2188 65.5394 17.7216C65.208 17.2197 65.0423 16.6136 65.0423 15.9034C65.0423 15.2784 65.1654 14.7718 65.4116 14.3835C65.6578 13.9905 65.9869 13.6828 66.3988 13.4602C66.8107 13.2377 67.2653 13.072 67.7624 12.9631C68.2643 12.8494 68.7686 12.7595 69.2752 12.6932C69.9381 12.608 70.4755 12.544 70.8874 12.5014C71.3041 12.4541 71.6071 12.3759 71.7965 12.267C71.9906 12.1581 72.0877 11.9687 72.0877 11.6989V11.642C72.0877 10.9413 71.896 10.3968 71.5124 10.0085C71.1336 9.62027 70.5584 9.42614 69.7866 9.42614C68.9864 9.42614 68.359 9.60133 67.9045 9.9517C67.4499 10.3021 67.1303 10.6761 66.9457 11.0739L65.3548 10.5057C65.6388 9.8428 66.0176 9.3267 66.4911 8.95739C66.9693 8.58333 67.4902 8.32292 68.0536 8.17614C68.6218 8.02462 69.1805 7.94886 69.7298 7.94886C70.0801 7.94886 70.4826 7.99148 70.9371 8.0767C71.3964 8.1572 71.8391 8.32528 72.2653 8.58097C72.6961 8.83665 73.0536 9.22254 73.3377 9.73864C73.6218 10.2547 73.7638 10.946 73.7638 11.8125V19H72.0877V17.5227H72.0025C71.8888 17.7595 71.6995 18.0128 71.4343 18.2827C71.1692 18.5526 70.8164 18.7822 70.3761 18.9716C69.9357 19.161 69.3983 19.2557 68.7638 19.2557ZM69.0195 17.75C69.6824 17.75 70.2411 17.6198 70.6957 17.3594C71.1549 17.099 71.5006 16.7628 71.7326 16.3509C71.9693 15.9389 72.0877 15.5057 72.0877 15.0511V13.517C72.0167 13.6023 71.8604 13.6804 71.619 13.7514C71.3822 13.8177 71.1076 13.8769 70.7951 13.929C70.4873 13.9763 70.1867 14.0189 69.8931 14.0568C69.6043 14.09 69.3699 14.1184 69.19 14.142C68.7544 14.1989 68.3472 14.2912 67.9684 14.419C67.5943 14.5421 67.2913 14.7292 67.0593 14.9801C66.832 15.2263 66.7184 15.5625 66.7184 15.9886C66.7184 16.571 66.9338 17.0114 67.3647 17.3097C67.8003 17.6032 68.3519 17.75 69.0195 17.75ZM76.8232 19V8.09091H78.4425V9.73864H78.5561C78.755 9.19886 79.1148 8.76089 79.6357 8.42472C80.1565 8.08854 80.7436 7.92045 81.397 7.92045C81.5201 7.92045 81.674 7.92282 81.8587 7.92756C82.0433 7.93229 82.183 7.93939 82.2777 7.94886V9.65341C82.2209 9.6392 82.0907 9.6179 81.8871 9.58949C81.6882 9.55634 81.4775 9.53977 81.255 9.53977C80.7247 9.53977 80.2512 9.65104 79.8345 9.87358C79.4226 10.0914 79.0959 10.3944 78.8544 10.7827C78.6177 11.1662 78.4993 11.6042 78.4993 12.0966V19H76.8232ZM89.6925 8.09091V9.51136H84.0391V8.09091H89.6925ZM85.6868 5.47727H87.3629V15.875C87.3629 16.3485 87.4316 16.7036 87.5689 16.9403C87.7109 17.1723 87.8909 17.3286 88.1087 17.4091C88.3312 17.4848 88.5656 17.5227 88.8118 17.5227C88.9964 17.5227 89.148 17.5133 89.2663 17.4943C89.3847 17.4706 89.4794 17.4517 89.5504 17.4375L89.8913 18.9432C89.7777 18.9858 89.6191 19.0284 89.4155 19.071C89.2119 19.1184 88.9538 19.142 88.6413 19.142C88.1679 19.142 87.7038 19.0402 87.2493 18.8366C86.7995 18.633 86.4254 18.3229 86.1271 17.9062C85.8336 17.4896 85.6868 16.964 85.6868 16.3295V5.47727ZM102.242 23.3182C101.433 23.3182 100.737 23.214 100.154 23.0057C99.5717 22.8021 99.0864 22.5322 98.6982 22.196C98.3146 21.8646 98.0092 21.5095 97.782 21.1307L99.1172 20.1932C99.2687 20.392 99.4605 20.6193 99.6925 20.875C99.9245 21.1354 100.242 21.3603 100.644 21.5497C101.051 21.7438 101.584 21.8409 102.242 21.8409C103.123 21.8409 103.85 21.6278 104.423 21.2017C104.996 20.7756 105.282 20.108 105.282 19.1989V16.983H105.14C105.017 17.1818 104.842 17.428 104.614 17.7216C104.392 18.0104 104.07 18.2685 103.648 18.4957C103.232 18.7183 102.668 18.8295 101.958 18.8295C101.077 18.8295 100.287 18.6212 99.5859 18.2045C98.8899 17.7879 98.3383 17.1818 97.9311 16.3864C97.5286 15.5909 97.3274 14.625 97.3274 13.4886C97.3274 12.3712 97.5239 11.3982 97.9169 10.5696C98.3099 9.73627 98.8568 9.09233 99.5575 8.63778C100.258 8.1785 101.068 7.94886 101.987 7.94886C102.697 7.94886 103.26 8.06723 103.677 8.30398C104.098 8.53598 104.42 8.80114 104.643 9.09943C104.87 9.39299 105.045 9.63447 105.168 9.82386H105.339V8.09091H106.958V19.3125C106.958 20.25 106.745 21.0123 106.319 21.5994C105.897 22.1913 105.329 22.6245 104.614 22.8991C103.904 23.1785 103.113 23.3182 102.242 23.3182ZM102.185 17.3239C102.858 17.3239 103.426 17.17 103.89 16.8622C104.354 16.5545 104.707 16.1117 104.948 15.5341C105.19 14.9564 105.31 14.2652 105.31 13.4602C105.31 12.6742 105.192 11.9806 104.955 11.3793C104.719 10.7779 104.368 10.3068 103.904 9.96591C103.44 9.625 102.867 9.45455 102.185 9.45455C101.475 9.45455 100.883 9.63447 100.41 9.99432C99.9411 10.3542 99.5883 10.8371 99.3516 11.4432C99.1196 12.0492 99.0036 12.7216 99.0036 13.4602C99.0036 14.2178 99.1219 14.8878 99.3587 15.4702C99.6001 16.0478 99.9553 16.5024 100.424 16.8338C100.897 17.1605 101.485 17.3239 102.185 17.3239ZM113.237 19.2557C112.545 19.2557 111.918 19.1255 111.354 18.8651C110.791 18.5999 110.344 18.2188 110.012 17.7216C109.681 17.2197 109.515 16.6136 109.515 15.9034C109.515 15.2784 109.638 14.7718 109.884 14.3835C110.13 13.9905 110.46 13.6828 110.871 13.4602C111.283 13.2377 111.738 13.072 112.235 12.9631C112.737 12.8494 113.241 12.7595 113.748 12.6932C114.411 12.608 114.948 12.544 115.36 12.5014C115.777 12.4541 116.08 12.3759 116.269 12.267C116.463 12.1581 116.56 11.9687 116.56 11.6989V11.642C116.56 10.9413 116.369 10.3968 115.985 10.0085C115.606 9.62027 115.031 9.42614 114.259 9.42614C113.459 9.42614 112.832 9.60133 112.377 9.9517C111.923 10.3021 111.603 10.6761 111.418 11.0739L109.827 10.5057C110.112 9.8428 110.49 9.3267 110.964 8.95739C111.442 8.58333 111.963 8.32292 112.526 8.17614C113.094 8.02462 113.653 7.94886 114.202 7.94886C114.553 7.94886 114.955 7.99148 115.41 8.0767C115.869 8.1572 116.312 8.32528 116.738 8.58097C117.169 8.83665 117.526 9.22254 117.81 9.73864C118.094 10.2547 118.237 10.946 118.237 11.8125V19H116.56V17.5227H116.475C116.362 17.7595 116.172 18.0128 115.907 18.2827C115.642 18.5526 115.289 18.7822 114.849 18.9716C114.408 19.161 113.871 19.2557 113.237 19.2557ZM113.492 17.75C114.155 17.75 114.714 17.6198 115.168 17.3594C115.628 17.099 115.973 16.7628 116.205 16.3509C116.442 15.9389 116.56 15.5057 116.56 15.0511V13.517C116.489 13.6023 116.333 13.6804 116.092 13.7514C115.855 13.8177 115.58 13.8769 115.268 13.929C114.96 13.9763 114.659 14.0189 114.366 14.0568C114.077 14.09 113.843 14.1184 113.663 14.142C113.227 14.1989 112.82 14.2912 112.441 14.419C112.067 14.5421 111.764 14.7292 111.532 14.9801C111.305 15.2263 111.191 15.5625 111.191 15.9886C111.191 16.571 111.406 17.0114 111.837 17.3097C112.273 17.6032 112.825 17.75 113.492 17.75ZM121.296 19V8.09091H122.915V9.79545H123.057C123.284 9.21307 123.651 8.76089 124.158 8.43892C124.665 8.11222 125.273 7.94886 125.983 7.94886C126.703 7.94886 127.302 8.11222 127.78 8.43892C128.263 8.76089 128.64 9.21307 128.909 9.79545H129.023C129.302 9.23201 129.721 8.78456 130.28 8.45312C130.839 8.11695 131.509 7.94886 132.29 7.94886C133.266 7.94886 134.063 8.25426 134.684 8.86506C135.304 9.47112 135.614 10.4157 135.614 11.6989V19H133.938V11.6989C133.938 10.8939 133.718 10.3187 133.277 9.97301C132.837 9.62737 132.319 9.45455 131.722 9.45455C130.955 9.45455 130.361 9.68655 129.939 10.1506C129.518 10.6098 129.307 11.1922 129.307 11.8977V19H127.603V11.5284C127.603 10.9081 127.401 10.4086 126.999 10.0298C126.596 9.64631 126.078 9.45455 125.444 9.45455C125.008 9.45455 124.601 9.57055 124.222 9.80256C123.848 10.0346 123.545 10.3565 123.313 10.7685C123.086 11.1757 122.972 11.6468 122.972 12.1818V19H121.296ZM143.252 19.2273C142.201 19.2273 141.295 18.9953 140.532 18.5312C139.775 18.0625 139.19 17.4091 138.778 16.571C138.371 15.7282 138.167 14.7481 138.167 13.6307C138.167 12.5133 138.371 11.5284 138.778 10.6761C139.19 9.81913 139.763 9.15152 140.497 8.6733C141.235 8.19034 142.097 7.94886 143.082 7.94886C143.65 7.94886 144.211 8.04356 144.765 8.23295C145.319 8.42235 145.824 8.73011 146.278 9.15625C146.733 9.57765 147.095 10.1364 147.365 10.8324C147.635 11.5284 147.77 12.3854 147.77 13.4034V14.1136H139.36V12.6648H146.065C146.065 12.0492 145.942 11.5 145.696 11.017C145.454 10.5341 145.109 10.1529 144.659 9.87358C144.214 9.59422 143.688 9.45455 143.082 9.45455C142.414 9.45455 141.837 9.62026 141.349 9.9517C140.866 10.2784 140.494 10.7045 140.234 11.2301C139.974 11.7557 139.843 12.3191 139.843 12.9205V13.8864C139.843 14.7102 139.985 15.4086 140.27 15.9815C140.558 16.5497 140.958 16.983 141.47 17.2812C141.981 17.5748 142.575 17.7216 143.252 17.7216C143.693 17.7216 144.091 17.66 144.446 17.5369C144.806 17.4091 145.116 17.2197 145.376 16.9688C145.636 16.7131 145.838 16.3958 145.98 16.017L147.599 16.4716C147.429 17.0208 147.142 17.5038 146.74 17.9205C146.337 18.3324 145.84 18.6544 145.248 18.8864C144.656 19.1136 143.991 19.2273 143.252 19.2273Z" fill="white"/>
</g>
<line x1="160" y1="11.5" x2="191" y2="11.5" stroke="white"/>
<line y1="11.5" x2="31" y2="11.5" stroke="white"/>
<defs>
<filter id="filter0_d_5_92" x="41.1364" y="4.25568" width="110.633" height="27.0625" filterUnits="userSpaceOnUse" color-interpolation-filters="sRGB">
<feFlood flood-opacity="0" result="BackgroundImageFix"/>
<feColorMatrix in="SourceAlpha" type="matrix" values="0 0 0 0 0 0 0 0 0 0 0 0 0 0 0 0 0 0 127 0" result="hardAlpha"/>
<feOffset dy="4"/>
<feGaussianBlur stdDeviation="2"/>
<feComposite in2="hardAlpha" operator="out"/>
<feColorMatrix type="matrix" values="0 0 0 0 0 0 0 0 0 0 0 0 0 0 0 0 0 0 0.25 0"/>
<feBlend mode="normal" in2="BackgroundImageFix" result="effect1_dropShadow_5_92"/>
<feBlend mode="normal" in="SourceGraphic" in2="effect1_dropShadow_5_92" result="shape"/>
</filter>
</defs>
</svg>
