<svg id="Layer_1" data-name="Layer 1" xmlns="http://www.w3.org/2000/svg" viewBox="0 0 865 351"><defs><style>.cls-1{fill:#f04126;}</style></defs><title>top_weird</title><path class="cls-1" d="M246,360c60-1,60,0,60,0v47H246" transform="translate(-246 -202)"/><path class="cls-1" d="M384,319c11,1,32-2,32,0h0l-5,137H323l4-49h53" transform="translate(-246 -202)"/><path class="cls-1" d="M454,313c30-1,30,0,30,0V461H454" transform="translate(-246 -202)"/><polyline class="cls-1" points="273 106 302 106 302 254 273 259"/><path class="cls-1" d="M757,271c-8-5-82-69-82-69s-3,13-85,69V475s30,15,46,29,51,49,51,49l36-61,38-14S765,276,757,271ZM687,478H649V284l38-16C689,478,687,478,687,478Z" transform="translate(-246 -202)"/><path class="cls-1" d="M795,313h28l-5,143H791Z" transform="translate(-246 -202)"/><rect class="cls-1" x="593" y="111" width="17" height="143"/><path class="cls-1" d="M888,318c21-3,28,0,28,0V461H888Z" transform="translate(-246 -202)"/><path class="cls-1" d="M956,317c10-1,23,0,23,0v97h44v47H956Z" transform="translate(-246 -202)"/><path class="cls-1" d="M1065,360c13,3,46,0,46,0v47h-46Z" transform="translate(-246 -202)"/></svg>